<?xml version="1.0" encoding="UTF-8"?>
<!DOCTYPE svg PUBLIC "-//W3C//DTD SVG 1.1//EN" "http://www.w3.org/Graphics/SVG/1.1/DTD/svg11.dtd">
<!-- Creator: CorelDRAW -->
<svg xmlns="http://www.w3.org/2000/svg" xml:space="preserve" width="0.564024in" height="0.647319in" version="1.1" style="shape-rendering:geometricPrecision; text-rendering:geometricPrecision; image-rendering:optimizeQuality; fill-rule:evenodd; clip-rule:evenodd"
viewBox="0 0 106.99 122.79"
 xmlns:xlink="http://www.w3.org/1999/xlink"
 xmlns:xodm="http://www.corel.com/coreldraw/odm/2003">
 <defs>
  <style type="text/css">
   <![CDATA[
    .str0 {stroke:#373435;stroke-width:1.32;stroke-miterlimit:2.61313}
    .fil1 {fill:#373435}
    .fil0 {fill:#373435;fill-rule:nonzero}
   ]]>
  </style>
 </defs>
 <g id="Layer_x0020_1">
  <metadata id="CorelCorpID_0Corel-Layer"/>
  <g id="_2190767612688">
   <path class="fil0" d="M54.7 0.33l51.11 29.5c0.75,0.44 1.18,1.23 1.18,2.04l0.01 59.04c0,0.93 -0.54,1.74 -1.33,2.13l-50.99 29.43c-0.76,0.44 -1.67,0.4 -2.38,-0.02l-51.11 -29.5c-0.75,-0.44 -1.18,-1.23 -1.18,-2.04l-0.01 -59.04c0,-0.93 0.54,-1.74 1.33,-2.13l50.99 -29.43c0.76,-0.44 1.67,-0.4 2.38,0.02zm23.18 18.82l-24.38 -14.08 -48.76 28.16 0 56.32 48.76 28.16 48.76 -28.16 0 -56.32 -24.38 -14.08z"/>
   <polygon class="fil1 str0" points="40.41,61.39 43.06,55 45.71,48.62 52.1,45.97 58.48,43.32 64.87,45.97 71.26,48.62 82.58,37.3 70.53,32.31 58.48,27.32 46.44,32.31 34.39,37.3 29.4,49.35 24.41,61.39 29.4,73.44 34.39,85.49 46.44,90.48 58.48,95.47 70.53,90.48 82.58,85.49 71.26,74.17 64.87,76.82 58.48,79.47 52.1,76.82 45.71,74.17 43.06,67.78 "/>
  </g>
 </g>
</svg>
